<mxfile host="app.diagrams.net" modified="2023-10-16T20:15:25.752Z" agent="Mozilla/5.0 (Windows NT 10.0; Win64; x64) AppleWebKit/537.36 (KHTML, like Gecko) Chrome/118.0.0.0 Safari/537.36" etag="pwabbJEkVw-AX010nInf" version="22.0.4" type="device">
  <diagram name="Strona-1" id="2bOkGgD_24Y1R7W3lT9i">
    <mxGraphModel dx="1434" dy="792" grid="1" gridSize="10" guides="1" tooltips="1" connect="1" arrows="1" fold="1" page="1" pageScale="1" pageWidth="827" pageHeight="1169" math="0" shadow="0">
      <root>
        <mxCell id="0" />
        <mxCell id="1" parent="0" />
        <mxCell id="NuFn5LgcSSqQIFGkuQl3-12" value="" style="edgeStyle=orthogonalEdgeStyle;rounded=0;orthogonalLoop=1;jettySize=auto;html=1;" edge="1" parent="1" source="NuFn5LgcSSqQIFGkuQl3-1" target="NuFn5LgcSSqQIFGkuQl3-2">
          <mxGeometry relative="1" as="geometry" />
        </mxCell>
        <mxCell id="NuFn5LgcSSqQIFGkuQl3-1" value="łączymy się z WiFi" style="rounded=0;whiteSpace=wrap;html=1;" vertex="1" parent="1">
          <mxGeometry x="330" y="70" width="120" height="60" as="geometry" />
        </mxCell>
        <mxCell id="NuFn5LgcSSqQIFGkuQl3-13" value="" style="edgeStyle=orthogonalEdgeStyle;rounded=0;orthogonalLoop=1;jettySize=auto;html=1;" edge="1" parent="1" source="NuFn5LgcSSqQIFGkuQl3-2" target="NuFn5LgcSSqQIFGkuQl3-3">
          <mxGeometry relative="1" as="geometry" />
        </mxCell>
        <mxCell id="NuFn5LgcSSqQIFGkuQl3-2" value="łączymy z AWS i shadow" style="rounded=0;whiteSpace=wrap;html=1;" vertex="1" parent="1">
          <mxGeometry x="330" y="170" width="120" height="60" as="geometry" />
        </mxCell>
        <mxCell id="NuFn5LgcSSqQIFGkuQl3-10" value="" style="edgeStyle=orthogonalEdgeStyle;rounded=0;orthogonalLoop=1;jettySize=auto;html=1;" edge="1" parent="1" source="NuFn5LgcSSqQIFGkuQl3-3" target="NuFn5LgcSSqQIFGkuQl3-9">
          <mxGeometry relative="1" as="geometry" />
        </mxCell>
        <mxCell id="NuFn5LgcSSqQIFGkuQl3-3" value="Wysyłamy reported" style="rounded=0;whiteSpace=wrap;html=1;" vertex="1" parent="1">
          <mxGeometry x="330" y="270" width="120" height="60" as="geometry" />
        </mxCell>
        <mxCell id="NuFn5LgcSSqQIFGkuQl3-7" value="" style="edgeStyle=orthogonalEdgeStyle;rounded=0;orthogonalLoop=1;jettySize=auto;html=1;entryX=0.5;entryY=0;entryDx=0;entryDy=0;" edge="1" parent="1" source="NuFn5LgcSSqQIFGkuQl3-5" target="NuFn5LgcSSqQIFGkuQl3-14">
          <mxGeometry relative="1" as="geometry">
            <mxPoint x="390" y="600" as="targetPoint" />
          </mxGeometry>
        </mxCell>
        <mxCell id="NuFn5LgcSSqQIFGkuQl3-8" value="TAK" style="edgeLabel;html=1;align=center;verticalAlign=middle;resizable=0;points=[];" vertex="1" connectable="0" parent="NuFn5LgcSSqQIFGkuQl3-7">
          <mxGeometry x="-0.2308" y="2" relative="1" as="geometry">
            <mxPoint x="-2" y="5" as="offset" />
          </mxGeometry>
        </mxCell>
        <mxCell id="NuFn5LgcSSqQIFGkuQl3-21" style="edgeStyle=orthogonalEdgeStyle;rounded=0;orthogonalLoop=1;jettySize=auto;html=1;exitX=1;exitY=0.5;exitDx=0;exitDy=0;entryX=1;entryY=0.5;entryDx=0;entryDy=0;" edge="1" parent="1" source="NuFn5LgcSSqQIFGkuQl3-5" target="NuFn5LgcSSqQIFGkuQl3-9">
          <mxGeometry relative="1" as="geometry">
            <Array as="points">
              <mxPoint x="540" y="500" />
              <mxPoint x="540" y="400" />
            </Array>
          </mxGeometry>
        </mxCell>
        <mxCell id="NuFn5LgcSSqQIFGkuQl3-22" value="NIR" style="edgeLabel;html=1;align=center;verticalAlign=middle;resizable=0;points=[];" vertex="1" connectable="0" parent="NuFn5LgcSSqQIFGkuQl3-21">
          <mxGeometry x="-0.6267" y="-3" relative="1" as="geometry">
            <mxPoint as="offset" />
          </mxGeometry>
        </mxCell>
        <mxCell id="NuFn5LgcSSqQIFGkuQl3-24" value="NIE" style="edgeLabel;html=1;align=center;verticalAlign=middle;resizable=0;points=[];" vertex="1" connectable="0" parent="NuFn5LgcSSqQIFGkuQl3-21">
          <mxGeometry x="-0.6333" y="-1" relative="1" as="geometry">
            <mxPoint as="offset" />
          </mxGeometry>
        </mxCell>
        <mxCell id="NuFn5LgcSSqQIFGkuQl3-25" style="edgeStyle=orthogonalEdgeStyle;rounded=0;orthogonalLoop=1;jettySize=auto;html=1;entryX=0;entryY=0.5;entryDx=0;entryDy=0;" edge="1" parent="1" source="NuFn5LgcSSqQIFGkuQl3-5" target="NuFn5LgcSSqQIFGkuQl3-3">
          <mxGeometry relative="1" as="geometry">
            <Array as="points">
              <mxPoint x="260" y="500" />
              <mxPoint x="260" y="300" />
            </Array>
          </mxGeometry>
        </mxCell>
        <mxCell id="NuFn5LgcSSqQIFGkuQl3-26" value="NIE" style="edgeLabel;html=1;align=center;verticalAlign=middle;resizable=0;points=[];" vertex="1" connectable="0" parent="NuFn5LgcSSqQIFGkuQl3-25">
          <mxGeometry x="-0.7667" y="-4" relative="1" as="geometry">
            <mxPoint y="4" as="offset" />
          </mxGeometry>
        </mxCell>
        <mxCell id="NuFn5LgcSSqQIFGkuQl3-5" value="Czy delta?" style="rhombus;whiteSpace=wrap;html=1;" vertex="1" parent="1">
          <mxGeometry x="350" y="460" width="80" height="80" as="geometry" />
        </mxCell>
        <mxCell id="NuFn5LgcSSqQIFGkuQl3-11" value="" style="edgeStyle=orthogonalEdgeStyle;rounded=0;orthogonalLoop=1;jettySize=auto;html=1;" edge="1" parent="1" source="NuFn5LgcSSqQIFGkuQl3-9" target="NuFn5LgcSSqQIFGkuQl3-5">
          <mxGeometry relative="1" as="geometry" />
        </mxCell>
        <mxCell id="NuFn5LgcSSqQIFGkuQl3-9" value="Odczytujemy delte" style="rounded=0;whiteSpace=wrap;html=1;" vertex="1" parent="1">
          <mxGeometry x="330" y="370" width="120" height="60" as="geometry" />
        </mxCell>
        <mxCell id="NuFn5LgcSSqQIFGkuQl3-16" value="" style="edgeStyle=orthogonalEdgeStyle;rounded=0;orthogonalLoop=1;jettySize=auto;html=1;" edge="1" parent="1" source="NuFn5LgcSSqQIFGkuQl3-14" target="NuFn5LgcSSqQIFGkuQl3-15">
          <mxGeometry relative="1" as="geometry" />
        </mxCell>
        <mxCell id="NuFn5LgcSSqQIFGkuQl3-14" value="Przypisujemy wartość" style="rounded=0;whiteSpace=wrap;html=1;" vertex="1" parent="1">
          <mxGeometry x="330" y="600" width="120" height="60" as="geometry" />
        </mxCell>
        <mxCell id="NuFn5LgcSSqQIFGkuQl3-17" style="edgeStyle=orthogonalEdgeStyle;rounded=0;orthogonalLoop=1;jettySize=auto;html=1;entryX=1;entryY=0.5;entryDx=0;entryDy=0;" edge="1" parent="1" source="NuFn5LgcSSqQIFGkuQl3-15" target="NuFn5LgcSSqQIFGkuQl3-3">
          <mxGeometry relative="1" as="geometry">
            <mxPoint x="670" y="260" as="targetPoint" />
            <Array as="points">
              <mxPoint x="390" y="810" />
              <mxPoint x="671" y="810" />
              <mxPoint x="671" y="300" />
            </Array>
          </mxGeometry>
        </mxCell>
        <mxCell id="NuFn5LgcSSqQIFGkuQl3-15" value="Ekzekwujemy" style="rounded=0;whiteSpace=wrap;html=1;" vertex="1" parent="1">
          <mxGeometry x="330" y="710" width="120" height="60" as="geometry" />
        </mxCell>
      </root>
    </mxGraphModel>
  </diagram>
</mxfile>
